<svg width="128" height="28" viewBox="0 0 128 28" fill="none" xmlns="http://www.w3.org/2000/svg">
<path d="M15.7483 9.8811C15.7317 9.73206 15.4751 8.91219 15.4189 8.66998C15.1682 7.55988 15.0663 6.42133 15.1161 5.28436C15.1711 4.22758 15.5119 2.55978 16.8963 2.67998C17.9262 2.7694 19.0971 3.88866 19.7341 4.66051C22.6156 8.15172 24.0742 13.0874 23.9173 17.5843C23.7849 19.6011 22.878 21.4367 21.3382 22.7413C19.2158 24.5395 16.4341 25.0782 13.727 25.1682C12.8076 25.1987 11.8678 25.1939 10.9501 25.1216C8.14799 24.9001 5.32263 24.0796 3.43863 21.876C1.83822 20.0042 1.5215 17.7399 1.74236 15.3608C2.15055 11.2231 3.81484 6.33883 7.01353 3.55096C7.5336 3.09768 8.29722 2.61711 8.99908 2.68625C9.35403 2.7227 9.67963 2.89963 9.90329 3.17755C10.8268 4.3196 10.5505 7.14816 10.2593 8.48482C10.1913 8.79719 9.91165 9.67717 9.89281 9.87114C10.0554 9.70404 10.1761 9.50612 10.3377 9.32976C10.9452 8.66593 11.713 7.89337 12.6586 7.81543C12.8354 7.80084 13.0922 7.89639 13.2079 8.02858C13.6887 8.57777 12.9437 9.36737 12.6931 9.86767C13.7922 8.94739 14.7128 8.73838 15.7483 9.8811Z" fill="white"/>
<path d="M5.73953 15.3594C6.33929 14.874 7.05211 14.5948 7.83435 14.6789C8.56521 14.7589 9.23261 15.1311 9.68468 15.7108C10.1408 16.2896 10.3468 17.0265 10.257 17.758C10.1836 18.3581 9.90731 18.9112 9.42116 19.2812C8.93851 19.6421 8.33274 19.797 7.73607 19.7128C7.62143 19.6961 7.30255 19.6225 7.19398 19.5817L7.15486 19.5611C6.64119 19.3892 6.54172 19.2966 6.2203 18.8621L6.19549 18.8425C5.37933 17.7384 5.39766 16.1496 6.56085 15.298C6.61624 15.2577 6.6725 15.2186 6.72953 15.1806C6.38937 15.2258 6.07098 15.266 5.73953 15.3594Z" fill="#000100"/>
<path d="M18.4919 19.5349C17.1679 20.06 15.5095 19.2491 15.3653 17.6566C15.3031 16.9209 15.5373 16.1905 16.0159 15.6279C16.4694 15.0851 17.1198 14.7443 17.8243 14.6805C18.6054 14.6115 19.2562 14.8542 19.848 15.3449C19.5133 15.2558 19.2689 15.2289 18.9231 15.1826C18.9502 15.2003 18.9769 15.2184 19.0034 15.2369C19.5209 15.601 19.8701 16.1579 19.9721 16.7823C20.1038 17.5781 19.8879 18.2071 19.4336 18.8474L19.4116 18.8673C19.0685 19.2576 18.9045 19.3712 18.4919 19.5349Z" fill="#000100"/>
<path d="M12.7689 20.6807C13.3359 20.8396 13.5459 21.6824 14.0657 21.912C15.1089 22.3728 15.368 21.0525 15.9571 20.7995L16.0865 20.8702C16.2063 21.3011 15.7152 21.9718 15.3854 22.2306C15.0771 22.477 14.6795 22.5835 14.2895 22.523C13.5927 22.4172 13.2607 22.0265 12.863 21.5081C12.6742 21.7458 12.438 22.0615 12.1895 22.2321C11.8312 22.4785 11.3895 22.5718 10.9619 22.4923C10.2771 22.3582 9.38523 21.6569 9.54646 20.8833L9.65359 20.825C10.1137 21.0248 10.5627 21.8508 11.109 22.0236C12.0191 22.0323 12.123 21.2814 12.7689 20.6807Z" fill="#061C0C"/>
<path d="M32.5576 20.3754L37.3396 7.96318C37.6009 7.25764 37.7838 6.57824 37.8753 6.02949C37.9798 5.4938 39.2341 4.8536 39.9135 4.8536C40.41 4.8536 40.5668 5.21943 40.7758 5.74205L46.3678 20.2839C46.4854 20.5844 46.8251 21.2638 47.4653 21.6819C47.7005 21.8387 48.0533 22.0739 48.0533 22.4136C48.0533 22.9623 47.6482 23.0538 46.8512 23.0538C46.2894 23.0538 45.7929 22.9885 44.8392 22.9885C43.8854 22.9885 43.4934 23.0538 42.8793 23.0538C42.2914 23.0538 42.004 22.8317 42.004 22.4397C42.004 21.8256 43.3889 21.695 43.3889 20.7673C43.3889 20.5844 42.8271 18.7814 42.4351 18.0628C42.3175 17.8537 42.1477 17.71 41.821 17.71H36.1898C35.824 17.71 35.6149 17.8145 35.4843 18.0105C35.0793 18.6507 34.4652 20.4668 34.4652 20.8196C34.4652 21.8387 35.7587 21.8518 35.7587 22.4789C35.7587 22.8056 35.5496 23.0538 34.8833 23.0538C34.4521 23.0538 33.3415 22.9885 32.8712 22.9885C32.3747 22.9885 32.0611 23.0538 31.6169 23.0538C31.1596 23.0538 30.9375 22.8448 30.9375 22.4789C30.9375 21.8256 31.9827 21.8518 32.5576 20.3754ZM36.425 16.0376H41.4029C41.612 16.0376 41.6512 15.9723 41.6512 15.8417C41.6512 15.4758 39.9135 10.5501 39.1949 9.04761C39.1426 8.91696 39.025 8.76017 38.9466 8.76017C38.8421 8.76017 38.7768 8.91696 38.7245 9.03455C38.0321 10.4848 36.1768 15.5542 36.1768 15.8417C36.1768 15.9723 36.229 16.0376 36.425 16.0376Z" fill="white"/>
<path d="M53.0104 4.54002C53.0104 5.36315 52.9059 5.85964 52.9059 8.59032V20.2839C52.9059 21.0809 53.1411 21.4206 53.533 21.7081C53.9119 21.9824 54.3169 22.0608 54.3169 22.492C54.3169 22.8056 54.1471 23.0538 53.4938 23.0538C52.9973 23.0538 52.2918 22.9885 51.6908 22.9885C50.9983 22.9885 50.4757 23.0538 49.731 23.0538C49.1299 23.0538 48.9732 22.8056 48.9732 22.5181C48.9732 22.087 49.4043 21.9302 49.6526 21.7473C50.2928 21.29 50.3973 20.8196 50.3973 20.1663V7.02246C50.3973 6.47371 50.0315 6.19934 49.5088 6.02949C49.2475 5.92496 48.9862 5.75511 48.9862 5.4938C48.9862 5.01038 49.5219 4.90586 50.2274 4.63148C51.4033 4.16112 51.8998 3.78223 52.3441 3.78223C52.7883 3.78223 53.0104 4.01741 53.0104 4.54002Z" fill="white"/>
<path d="M60.1301 4.54002C60.1301 5.36315 60.0255 5.85964 60.0255 8.59032V20.2839C60.0255 21.0809 60.2607 21.4206 60.6527 21.7081C61.0316 21.9824 61.4366 22.0608 61.4366 22.492C61.4366 22.8056 61.2668 23.0538 60.6135 23.0538C60.117 23.0538 59.4115 22.9885 58.8104 22.9885C58.118 22.9885 57.5954 23.0538 56.8506 23.0538C56.2496 23.0538 56.0928 22.8056 56.0928 22.5181C56.0928 22.087 56.524 21.9302 56.7722 21.7473C57.4124 21.29 57.517 20.8196 57.517 20.1663V7.02246C57.517 6.47371 57.1511 6.19934 56.6285 6.02949C56.3672 5.92496 56.1059 5.75511 56.1059 5.4938C56.1059 5.01038 56.6416 4.90586 57.3471 4.63148C58.523 4.16112 59.0195 3.78223 59.4637 3.78223C59.9079 3.78223 60.1301 4.01741 60.1301 4.54002Z" fill="white"/>
<path d="M63.0296 16.5211C63.0296 12.4446 65.708 9.60943 69.4055 9.60943C72.9201 9.60943 76.0559 12.2225 76.0559 16.7562C76.0559 21.094 73.1292 23.2498 69.5884 23.2498C65.5773 23.2498 63.0296 20.4276 63.0296 16.5211ZM69.1573 11.0336C67.2889 11.0336 65.7472 12.6406 65.7472 15.7241C65.7472 16.7954 65.917 18.2196 66.505 19.3955C67.3673 21.0679 68.7653 21.6558 69.9673 21.6558C71.7834 21.6558 73.4297 20.3492 73.4297 17.3703C73.4297 15.9462 73.0769 14.4306 72.502 13.3331C71.6528 11.7914 70.4116 11.0336 69.1573 11.0336Z" fill="white"/>
<path d="M77.6517 16.704C77.6517 12.915 80.1472 9.60943 84.1844 9.60943C86.889 9.60943 88.7443 11.1904 88.7443 12.9673C88.7443 14.1431 87.8036 14.718 86.9935 14.718C86.4055 14.718 86.4839 14.3522 86.301 13.5813C85.9744 12.118 85.1121 11.0074 83.6357 11.0074C81.7281 11.0074 80.1733 12.915 80.1733 15.7241C80.1733 18.7161 81.8457 21.0287 84.707 21.0287C87.2025 21.0287 88.1955 19.3301 88.6528 18.4548C88.7573 18.2849 88.9141 18.0759 89.084 18.0759C89.3191 18.0759 89.3975 18.3633 89.3975 18.7291C89.3975 20.4799 87.503 23.2629 83.91 23.2629C80.2648 23.2629 77.6517 20.5583 77.6517 16.704Z" fill="white"/>
<path d="M94.7942 16.0376C96.558 15.5934 98.8184 15.5542 99.1058 15.3582C99.2103 15.2798 99.341 15.11 99.341 14.3391C99.341 12.4185 98.544 10.8376 96.5188 10.8376C94.8987 10.8376 94.2193 12.0527 93.9711 13.2024C93.8404 13.7904 93.6314 14.117 93.0304 14.117C92.4424 14.117 91.6846 13.6859 91.6846 12.6537C91.6846 11.2034 93.5007 9.60943 96.5711 9.60943C100.047 9.60943 101.889 11.726 101.889 14.8617C101.889 16.5995 101.745 18.9643 101.745 20.0357C101.745 20.6367 101.954 21.1985 102.516 21.1985C102.869 21.1985 102.986 21.0679 103.195 21.0679C103.261 21.0679 103.404 21.1724 103.404 21.4729C103.404 22.3613 102.516 23.1714 101.379 23.1714C100.373 23.1714 99.6415 22.7664 99.2757 21.7342C99.2365 21.6035 99.1581 21.5121 99.0666 21.5121C98.9751 21.5121 98.8706 21.6819 98.7661 21.7865C97.8907 22.6618 96.4535 23.302 94.8595 23.302C92.6515 23.302 90.9268 22.1262 90.9268 20.0618C90.9268 18.0236 92.4424 16.6648 94.7942 16.0376ZM99.3279 17.7754C99.3279 17.0567 99.2626 16.7954 99.0797 16.7954C97.7078 16.7954 96.6626 16.9 95.7872 17.1613C94.1671 17.6447 93.553 18.6769 93.553 19.6437C93.553 20.9111 94.5459 21.5905 95.8002 21.5905C97.7992 21.5905 99.3279 20.1533 99.3279 17.7754Z" fill="white"/>
<path d="M108.497 11.909C108.471 12.327 108.379 16.717 108.379 18.0367C108.379 19.4869 108.615 21.2377 110.392 21.2377C111.332 21.2377 112.064 20.6106 112.469 20.1663C112.691 19.9181 112.809 19.7744 112.978 19.7744C113.109 19.7744 113.292 19.8658 113.292 20.2317C113.292 20.4538 113.214 20.7804 113.018 21.107C112.534 21.9563 111.437 23.2498 109.255 23.2498C107.112 23.2498 105.832 21.8256 105.832 18.6115C105.832 17.3965 106.002 13.4637 106.002 12.3662C106.002 11.909 105.897 11.713 105.557 11.6738C104.447 11.5562 103.859 11.5301 103.859 11.0336C103.859 10.6939 104.016 10.4326 104.421 10.2758C105.113 10.0014 105.858 9.64862 106.38 9.02148C107.321 7.89785 107.347 6.34306 108.053 6.34306C108.406 6.34306 108.615 6.6697 108.615 7.23151C108.615 7.70187 108.484 9.923 108.484 10.0145C108.484 10.0798 108.484 10.1059 108.588 10.1059C108.771 10.1059 111.855 9.9622 112.129 9.9622C112.547 9.9622 112.848 10.0929 112.848 10.6285C112.848 11.0336 112.626 11.5301 112.43 11.713C112.364 11.7783 112.221 11.8436 112.051 11.8436C111.803 11.8436 108.98 11.713 108.68 11.713C108.602 11.713 108.51 11.7391 108.497 11.909Z" fill="white"/>
<path d="M114.245 16.5211C114.245 12.4446 116.924 9.60943 120.621 9.60943C124.136 9.60943 127.271 12.2225 127.271 16.7562C127.271 21.094 124.345 23.2498 120.804 23.2498C116.793 23.2498 114.245 20.4276 114.245 16.5211ZM120.373 11.0336C118.505 11.0336 116.963 12.6406 116.963 15.7241C116.963 16.7954 117.133 18.2196 117.721 19.3955C118.583 21.0679 119.981 21.6558 121.183 21.6558C122.999 21.6558 124.645 20.3492 124.645 17.3703C124.645 15.9462 124.293 14.4306 123.718 13.3331C122.868 11.7914 121.627 11.0336 120.373 11.0336Z" fill="white"/>
</svg>
